# xmcd
#
# Track frame offsets:
#	150
#	20821
#	36540
#	53655
#	75294
#	90861
#	101639
#	121582
#	139054
#	155756
#	175205
#	200320
#
# Disc length: 2885 seconds
# Revision: 0
# Processed by: cddbd v1.5.2PL0 Copyright (c) Steve Scherf et al.
# Submitted via: dBpowerAMP V12.0
#
DISCID=910b430c
DTITLE=Amy Black - One Time
DYEAR=2011
DGENRE=Country
TTITLE0=Run Johnny
TTITLE1=One Time
TTITLE2=Whiskey and Wine
TTITLE3=Stay
TTITLE4=Molly
TTITLE5=You Ain't Woman Enough (To Take My Man)
TTITLE6=You Lied
TTITLE7=All My Love
TTITLE8=Meet Me On the Dance Floor
TTITLE9=I Can't Play This Game
TTITLE10=Words Fail You
TTITLE11=Ain't No Grave (Gonna Hold My Body Down)
EXTD=
EXTT0=
EXTT1=
EXTT2=
EXTT3=
EXTT4=
EXTT5=
EXTT6=
EXTT7=
EXTT8=
EXTT9=
EXTT10=
EXTT11=
PLAYORDER=
